<svg xmlns="http://www.w3.org/2000/svg" xmlns:xlink="http://www.w3.org/1999/xlink" xmlns:serif="http://www.serif.com/" viewBox="0 0 101 125" version="1.1" xml:space="preserve" style="" x="0px" y="0px" fill-rule="evenodd" clip-rule="evenodd" stroke-linejoin="round" stroke-miterlimit="1.41421"><rect serif:id="Page 36" x="0.5" y="0" width="100" height="100" style="" fill="none"/><path d="M17.5,35l-12,0l0,-30l18,0l0,12l6,0l0,-12l18,0l0,30l-12,0l0,6l30,0l0,-6l-12,0l0,-30l18,0l0,12l6,0l0,-12l18,0l0,30l-12,0l0,6l12,0l0,30l-18,0l0,-12l-18,0l0,6l12,0l0,18l-12,0l0,6l18,0l0,-12l18,0l0,18l-6,0l0,-12l-6,0l0,12l-30,0l0,-18l12,0l0,-6l-12,0l0,-18l30,0l0,12l6,0l0,-18l-12,0l0,-18l12,0l0,-18l-6,0l0,12l-18,0l0,-12l-6,0l0,18l12,0l0,18l-42,0l0,-18l12,0l0,-18l-6,0l0,12l-18,0l0,-12l-6,0l0,18l12,0l0,18l-12,0l0,18l6,0l0,-12l30,0l0,18l-12,0l0,6l12,0l0,18l-30,0l0,-12l-6,0l0,12l-6,0l0,-18l18,0l0,12l18,0l0,-6l-12,0l0,-18l12,0l0,-6l-18,0l0,12l-18,0l0,-30l12,0l0,-6Z"/><text x="0" y="115" fill="#000000" font-size="5px" font-weight="bold" font-family="'Helvetica Neue', Helvetica, Arial-Unicode, Arial, Sans-serif">Created by Zach Bogart</text><text x="0" y="120" fill="#000000" font-size="5px" font-weight="bold" font-family="'Helvetica Neue', Helvetica, Arial-Unicode, Arial, Sans-serif">from the Noun Project</text></svg>